<svg width="239" height="48" viewBox="0 0 239 48" fill="none" xmlns="http://www.w3.org/2000/svg">
<path d="M48.92 35.224C47.3627 35.224 45.9547 34.9573 44.696 34.424C43.4587 33.8907 42.4773 33.1227 41.752 32.12C41.0267 31.1173 40.6533 29.9333 40.632 28.568H45.432C45.496 29.4853 45.816 30.2107 46.392 30.744C46.9893 31.2773 47.8 31.544 48.824 31.544C49.8693 31.544 50.6907 31.2987 51.288 30.808C51.8853 30.296 52.184 29.6347 52.184 28.824C52.184 28.1627 51.9813 27.6187 51.576 27.192C51.1707 26.7653 50.6587 26.4347 50.04 26.2C49.4427 25.944 48.6107 25.6667 47.544 25.368C46.0933 24.9413 44.9093 24.5253 43.992 24.12C43.096 23.6933 42.3173 23.064 41.656 22.232C41.016 21.3787 40.696 20.248 40.696 18.84C40.696 17.5173 41.0267 16.3653 41.688 15.384C42.3493 14.4027 43.2773 13.656 44.472 13.144C45.6667 12.6107 47.032 12.344 48.568 12.344C50.872 12.344 52.7387 12.9093 54.168 14.04C55.6187 15.1493 56.4187 16.7067 56.568 18.712H51.64C51.5973 17.944 51.2667 17.3147 50.648 16.824C50.0507 16.312 49.2507 16.056 48.248 16.056C47.3733 16.056 46.6693 16.28 46.136 16.728C45.624 17.176 45.368 17.8267 45.368 18.68C45.368 19.2773 45.56 19.7787 45.944 20.184C46.3493 20.568 46.84 20.888 47.416 21.144C48.0133 21.3787 48.8453 21.656 49.912 21.976C51.3627 22.4027 52.5467 22.8293 53.464 23.256C54.3813 23.6827 55.1707 24.3227 55.832 25.176C56.4933 26.0293 56.824 27.1493 56.824 28.536C56.824 29.7307 56.5147 30.84 55.896 31.864C55.2773 32.888 54.3707 33.7093 53.176 34.328C51.9813 34.9253 50.5627 35.224 48.92 35.224ZM68.58 35.288C66.8733 35.288 65.3373 34.9147 63.972 34.168C62.6067 33.4 61.5293 32.3227 60.74 30.936C59.972 29.5493 59.588 27.9493 59.588 26.136C59.588 24.3227 59.9827 22.7227 60.772 21.336C61.5827 19.9493 62.6813 18.8827 64.068 18.136C65.4547 17.368 67.0013 16.984 68.708 16.984C70.4147 16.984 71.9613 17.368 73.348 18.136C74.7347 18.8827 75.8227 19.9493 76.612 21.336C77.4227 22.7227 77.828 24.3227 77.828 26.136C77.828 27.9493 77.412 29.5493 76.58 30.936C75.7693 32.3227 74.66 33.4 73.252 34.168C71.8653 34.9147 70.308 35.288 68.58 35.288ZM68.58 31.384C69.3907 31.384 70.148 31.192 70.852 30.808C71.5773 30.4027 72.1533 29.8053 72.58 29.016C73.0067 28.2267 73.22 27.2667 73.22 26.136C73.22 24.4507 72.772 23.16 71.876 22.264C71.0013 21.3467 69.924 20.888 68.644 20.888C67.364 20.888 66.2867 21.3467 65.412 22.264C64.5587 23.16 64.132 24.4507 64.132 26.136C64.132 27.8213 64.548 29.1227 65.38 30.04C66.2333 30.936 67.3 31.384 68.58 31.384ZM79.9622 26.136C79.9622 24.3013 80.3356 22.7013 81.0823 21.336C81.8289 19.9493 82.8636 18.8827 84.1863 18.136C85.5089 17.368 87.0236 16.984 88.7303 16.984C90.9276 16.984 92.7409 17.5387 94.1703 18.648C95.6209 19.736 96.5916 21.272 97.0823 23.256H92.2503C91.9943 22.488 91.5569 21.8907 90.9383 21.464C90.3409 21.016 89.5943 20.792 88.6983 20.792C87.4183 20.792 86.4049 21.2613 85.6583 22.2C84.9116 23.1173 84.5383 24.4293 84.5383 26.136C84.5383 27.8213 84.9116 29.1333 85.6583 30.072C86.4049 30.9893 87.4183 31.448 88.6983 31.448C90.5116 31.448 91.6956 30.6373 92.2503 29.016H97.0823C96.5916 30.936 95.6209 32.4613 94.1703 33.592C92.7196 34.7227 90.9063 35.288 88.7303 35.288C87.0236 35.288 85.5089 34.9147 84.1863 34.168C82.8636 33.4 81.8289 32.3333 81.0823 30.968C80.3356 29.5813 79.9622 27.9707 79.9622 26.136ZM102.636 15.16C101.847 15.16 101.186 14.9147 100.652 14.424C100.14 13.912 99.8843 13.2827 99.8843 12.536C99.8843 11.7893 100.14 11.1707 100.652 10.68C101.186 10.168 101.847 9.912 102.636 9.912C103.426 9.912 104.076 10.168 104.588 10.68C105.122 11.1707 105.388 11.7893 105.388 12.536C105.388 13.2827 105.122 13.912 104.588 14.424C104.076 14.9147 103.426 15.16 102.636 15.16ZM104.844 17.272V35H100.364V17.272H104.844ZM108.118 26.072C108.118 24.28 108.47 22.6907 109.174 21.304C109.9 19.9173 110.871 18.8507 112.087 18.104C113.324 17.3573 114.7 16.984 116.215 16.984C117.537 16.984 118.689 17.2507 119.671 17.784C120.673 18.3173 121.473 18.9893 122.071 19.8V17.272H126.583V35H122.071V32.408C121.495 33.24 120.695 33.9333 119.671 34.488C118.668 35.0213 117.505 35.288 116.183 35.288C114.689 35.288 113.324 34.904 112.087 34.136C110.871 33.368 109.9 32.2907 109.174 30.904C108.47 29.496 108.118 27.8853 108.118 26.072ZM122.071 26.136C122.071 25.048 121.857 24.12 121.431 23.352C121.004 22.5627 120.428 21.9653 119.703 21.56C118.977 21.1333 118.199 20.92 117.367 20.92C116.535 20.92 115.767 21.1227 115.062 21.528C114.359 21.9333 113.783 22.5307 113.335 23.32C112.908 24.088 112.695 25.0053 112.695 26.072C112.695 27.1387 112.908 28.0773 113.335 28.888C113.783 29.6773 114.359 30.2853 115.062 30.712C115.788 31.1387 116.556 31.352 117.367 31.352C118.199 31.352 118.977 31.1493 119.703 30.744C120.428 30.3173 121.004 29.72 121.431 28.952C121.857 28.1627 122.071 27.224 122.071 26.136ZM135.438 11.32V35H130.958V11.32H135.438ZM162.744 12.856V35H159.832V18.488L152.472 35H150.424L143.032 18.456V35H140.12V12.856H143.256L151.448 31.16L159.64 12.856H162.744ZM183.683 25.56C183.683 26.1147 183.651 26.7013 183.587 27.32H169.571C169.677 29.048 170.264 30.4027 171.331 31.384C172.419 32.344 173.731 32.824 175.267 32.824C176.525 32.824 177.571 32.536 178.403 31.96C179.256 31.3627 179.853 30.5733 180.195 29.592H183.331C182.861 31.2773 181.923 32.6533 180.515 33.72C179.107 34.7653 177.357 35.288 175.267 35.288C173.603 35.288 172.109 34.9147 170.787 34.168C169.485 33.4213 168.461 32.3653 167.715 31C166.968 29.6133 166.595 28.0133 166.595 26.2C166.595 24.3867 166.957 22.7973 167.683 21.432C168.408 20.0667 169.421 19.0213 170.723 18.296C172.045 17.5493 173.56 17.176 175.267 17.176C176.931 17.176 178.403 17.5387 179.683 18.264C180.963 18.9893 181.944 19.992 182.627 21.272C183.331 22.5307 183.683 23.96 183.683 25.56ZM180.675 24.952C180.675 23.8427 180.429 22.8933 179.939 22.104C179.448 21.2933 178.776 20.6853 177.923 20.28C177.091 19.8533 176.163 19.64 175.139 19.64C173.667 19.64 172.408 20.1093 171.363 21.048C170.339 21.9867 169.752 23.288 169.603 24.952H180.675ZM186.439 26.168C186.439 24.376 186.801 22.808 187.527 21.464C188.252 20.0987 189.244 19.0427 190.503 18.296C191.783 17.5493 193.212 17.176 194.791 17.176C196.156 17.176 197.425 17.496 198.599 18.136C199.772 18.7547 200.668 19.576 201.287 20.6V11.32H204.231V35H201.287V31.704C200.711 32.7493 199.857 33.6133 198.727 34.296C197.596 34.9573 196.273 35.288 194.759 35.288C193.201 35.288 191.783 34.904 190.503 34.136C189.244 33.368 188.252 32.2907 187.527 30.904C186.801 29.5173 186.439 27.9387 186.439 26.168ZM201.287 26.2C201.287 24.8773 201.02 23.7253 200.487 22.744C199.953 21.7627 199.228 21.016 198.311 20.504C197.415 19.9707 196.423 19.704 195.335 19.704C194.247 19.704 193.255 19.96 192.359 20.472C191.463 20.984 190.748 21.7307 190.215 22.712C189.681 23.6933 189.415 24.8453 189.415 26.168C189.415 27.512 189.681 28.6853 190.215 29.688C190.748 30.6693 191.463 31.4267 192.359 31.96C193.255 32.472 194.247 32.728 195.335 32.728C196.423 32.728 197.415 32.472 198.311 31.96C199.228 31.4267 199.953 30.6693 200.487 29.688C201.02 28.6853 201.287 27.5227 201.287 26.2ZM210.656 14.616C210.101 14.616 209.632 14.424 209.248 14.04C208.864 13.656 208.672 13.1867 208.672 12.632C208.672 12.0773 208.864 11.608 209.248 11.224C209.632 10.84 210.101 10.648 210.656 10.648C211.189 10.648 211.637 10.84 212 11.224C212.384 11.608 212.576 12.0773 212.576 12.632C212.576 13.1867 212.384 13.656 212 14.04C211.637 14.424 211.189 14.616 210.656 14.616ZM212.064 17.464V35H209.152V17.464H212.064ZM215.939 26.168C215.939 24.376 216.301 22.808 217.027 21.464C217.752 20.0987 218.744 19.0427 220.003 18.296C221.283 17.5493 222.701 17.176 224.259 17.176C225.795 17.176 227.128 17.5067 228.259 18.168C229.389 18.8293 230.232 19.6613 230.787 20.664V17.464H233.731V35H230.787V31.736C230.211 32.76 229.347 33.6133 228.195 34.296C227.064 34.9573 225.741 35.288 224.227 35.288C222.669 35.288 221.261 34.904 220.003 34.136C218.744 33.368 217.752 32.2907 217.027 30.904C216.301 29.5173 215.939 27.9387 215.939 26.168ZM230.787 26.2C230.787 24.8773 230.52 23.7253 229.987 22.744C229.453 21.7627 228.728 21.016 227.811 20.504C226.915 19.9707 225.923 19.704 224.835 19.704C223.747 19.704 222.755 19.96 221.859 20.472C220.963 20.984 220.248 21.7307 219.715 22.712C219.181 23.6933 218.915 24.8453 218.915 26.168C218.915 27.512 219.181 28.6853 219.715 29.688C220.248 30.6693 220.963 31.4267 221.859 31.96C222.755 32.472 223.747 32.728 224.835 32.728C225.923 32.728 226.915 32.472 227.811 31.96C228.728 31.4267 229.453 30.6693 229.987 29.688C230.52 28.6853 230.787 27.5227 230.787 26.2Z" fill="#071136"/>
<path d="M1.45833 35.1666V31.0833C1.45833 30.2569 1.671 29.4973 2.09635 28.8046C2.5217 28.1119 3.0868 27.5833 3.79166 27.2187C5.29861 26.4652 6.82986 25.9001 8.38541 25.5234C9.94097 25.1466 11.5208 24.9583 13.125 24.9583C14.7292 24.9583 16.309 25.1466 17.8646 25.5234C19.4201 25.9001 20.9514 26.4652 22.4583 27.2187C23.1632 27.5833 23.7283 28.1119 24.1536 28.8046C24.579 29.4973 24.7917 30.2569 24.7917 31.0833V35.1666H1.45833ZM27.7083 35.1666V30.7916C27.7083 29.7221 27.4106 28.6952 26.8151 27.7109C26.2196 26.7265 25.375 25.8819 24.2812 25.177C25.5208 25.3228 26.6875 25.572 27.7812 25.9244C28.875 26.2768 29.8958 26.7083 30.8437 27.2187C31.7187 27.7048 32.3871 28.2456 32.849 28.8411C33.3108 29.4366 33.5417 30.0867 33.5417 30.7916V35.1666H27.7083ZM13.125 23.4999C11.5208 23.4999 10.1476 22.9287 9.0052 21.7864C7.86284 20.644 7.29166 19.2708 7.29166 17.6666C7.29166 16.0624 7.86284 14.6892 9.0052 13.5468C10.1476 12.4044 11.5208 11.8333 13.125 11.8333C14.7292 11.8333 16.1024 12.4044 17.2448 13.5468C18.3871 14.6892 18.9583 16.0624 18.9583 17.6666C18.9583 19.2708 18.3871 20.644 17.2448 21.7864C16.1024 22.9287 14.7292 23.4999 13.125 23.4999ZM27.7083 17.6666C27.7083 19.2708 27.1371 20.644 25.9948 21.7864C24.8524 22.9287 23.4792 23.4999 21.875 23.4999C21.6076 23.4999 21.2674 23.4695 20.8542 23.4088C20.441 23.348 20.1007 23.2812 19.8333 23.2083C20.4896 22.4305 20.9939 21.5676 21.3463 20.6197C21.6988 19.6718 21.875 18.6874 21.875 17.6666C21.875 16.6458 21.6988 15.6614 21.3463 14.7135C20.9939 13.7655 20.4896 12.9027 19.8333 12.1249C20.1736 12.0034 20.5139 11.9244 20.8542 11.8879C21.1944 11.8515 21.5347 11.8333 21.875 11.8333C23.4792 11.8333 24.8524 12.4044 25.9948 13.5468C27.1371 14.6892 27.7083 16.0624 27.7083 17.6666ZM4.37499 32.2499H21.875V31.0833C21.875 30.8159 21.8082 30.5728 21.6745 30.3541C21.5408 30.1353 21.3646 29.9652 21.1458 29.8437C19.8333 29.1874 18.5087 28.6952 17.1719 28.3671C15.8351 28.039 14.4861 27.8749 13.125 27.8749C11.7639 27.8749 10.4149 28.039 9.07812 28.3671C7.74131 28.6952 6.41666 29.1874 5.10416 29.8437C4.88541 29.9652 4.7092 30.1353 4.57552 30.3541C4.44184 30.5728 4.37499 30.8159 4.37499 31.0833V32.2499ZM13.125 20.5833C13.9271 20.5833 14.6137 20.2977 15.1849 19.7265C15.7561 19.1553 16.0417 18.4687 16.0417 17.6666C16.0417 16.8645 15.7561 16.1779 15.1849 15.6067C14.6137 15.0355 13.9271 14.7499 13.125 14.7499C12.3229 14.7499 11.6363 15.0355 11.0651 15.6067C10.4939 16.1779 10.2083 16.8645 10.2083 17.6666C10.2083 18.4687 10.4939 19.1553 11.0651 19.7265C11.6363 20.2977 12.3229 20.5833 13.125 20.5833Z" fill="#071136"/>
</svg>
